# xmcd CD database file
#
# Track frame offsets:
#	150
#	31748
#	62792
#	98714
#	130652
#	192078
#	240134
#	287979
#
# Disc length: 4184 seconds
#
# Revision: 0
# Processed by: cddbd v1.5.1PL2 Copyright (c) Steve Scherf et al.
# Submitted via: CDex 1.51
#
DISCID=61105608
DTITLE=David Azarian - Hope
DYEAR=1988
DGENRE=Jazz
TTITLE0=Get out of Town
TTITLE1=Embraceable You
TTITLE2=Darn that Dream
TTITLE3=Song fo Wickie
TTITLE4=Prayer
TTITLE5=Living in Jazzland
TTITLE6=Song for Christina
TTITLE7=Hope
EXTD=YEAR: 1988
EXTT0=
EXTT1=
EXTT2=
EXTT3=
EXTT4=
EXTT5=
EXTT6=
EXTT7=
PLAYORDER=
